<svg xmlns="http://www.w3.org/2000/svg" width="20.6" height="20.628" viewBox="0 0 20.6 20.628">
  <path id="_004-baby" data-name="004-baby" d="M19.193,10.8h-.547a8.183,8.183,0,0,0-7.61-6.51.613.613,0,0,0-.062-.019A1.76,1.76,0,0,1,9.72,2.508a1.3,1.3,0,0,1,1.3-1.3.92.92,0,0,1,.917.92.6.6,0,0,0,1.207,0A2.128,2.128,0,0,0,11.017,0a2.509,2.509,0,0,0-2.5,2.508,3.134,3.134,0,0,0,.634,1.908A8.193,8.193,0,0,0,2.658,10.8H2.111a1.758,1.758,0,1,0,0,3.515H2.7a8.161,8.161,0,0,0,15.9,0h.591a1.758,1.758,0,1,0,0-3.515ZM8.529,13.019a.6.6,0,0,1-.6-.605.553.553,0,0,0-.623-.565h0a.552.552,0,0,0-.623.561.6.6,0,0,1-1.207,0,1.713,1.713,0,0,1,.6-1.334A1.907,1.907,0,0,1,7.3,10.642h.006a1.908,1.908,0,0,1,1.232.438,1.713,1.713,0,0,1,.594,1.338.6.6,0,0,1-.6.6h0Zm2.123,5.205a1.934,1.934,0,0,1-1.933-1.931.6.6,0,0,1,1.207,0,.726.726,0,0,0,1.451,0,.6.6,0,0,1,1.207,0A1.934,1.934,0,0,1,10.652,18.224Zm4.577-5.205h0a.6.6,0,0,1-.6-.605.5.5,0,0,0-.247-.47.8.8,0,0,0-.752,0,.5.5,0,0,0-.25.468.6.6,0,0,1-.6.6h0a.6.6,0,0,1-.6-.605,1.7,1.7,0,0,1,.856-1.512,1.991,1.991,0,0,1,1.959.006,1.7,1.7,0,0,1,.848,1.517.6.6,0,0,1-.6.6Z" transform="translate(-0.352)" fill="#9593a3"/>
</svg>
