<svg xmlns="http://www.w3.org/2000/svg" width="17.2" height="12.109" viewBox="0 0 17.2 12.109">
  <g id="_123-numbers" data-name="123-numbers" transform="translate(0 -6.96)">
    <g id="Сгруппировать_131" data-name="Сгруппировать 131" transform="translate(0 6.96)">
      <path id="Контур_203" data-name="Контур 203" d="M2.768,17.285a3.23,3.23,0,0,0-.877.154l-1.018.3a1.173,1.173,0,0,0,.3,2.307A1.644,1.644,0,0,0,1.522,20v4.351a1.266,1.266,0,1,0,2.533,0v-5.8A1.273,1.273,0,0,0,2.768,17.285Z" transform="translate(0 -13.509)" fill="#9593a3"/>
      <path id="Контур_204" data-name="Контур 204" d="M17.479,17.912H16.392l.047-.037c1.294-1,2.08-1.715,2.08-3.191a2.691,2.691,0,0,0-2.963-2.706,3.313,3.313,0,0,0-2.715,1.232,1.274,1.274,0,0,0-.3.806,1.213,1.213,0,0,0,2.1.823c.369-.4.564-.472.816-.472.432,0,.481.257.481.451,0,.339-.148.6-1.067,1.351l-2.043,1.674a1.475,1.475,0,0,0-.592,1.168,1.235,1.235,0,0,0,1.339,1.236h3.908a1.168,1.168,0,1,0,0-2.337Z" transform="translate(-7.759 -10.143)" fill="#9593a3"/>
      <path id="Контур_205" data-name="Контур 205" d="M34.779,10.142l.8-.764A1.606,1.606,0,0,0,36.2,8.144,1.2,1.2,0,0,0,34.913,6.96H31.407a1.164,1.164,0,1,0,0,2.327h1.045l-.576.581a1.4,1.4,0,0,0-.481.99,1.165,1.165,0,0,0,1.164,1.163h.247c.278,0,.923.042.923.452,0,.35-.373.389-.533.389a1.58,1.58,0,0,1-1.1-.421,1.235,1.235,0,0,0-.815-.308,1.237,1.237,0,0,0-.81,2.179,4.016,4.016,0,0,0,2.7.939,2.841,2.841,0,0,0,3.076-2.86A2.289,2.289,0,0,0,34.779,10.142Z" transform="translate(-19.052 -6.96)" fill="#9593a3"/>
    </g>
  </g>
</svg>
