<svg id="Сгруппировать_29" data-name="Сгруппировать 29" xmlns="http://www.w3.org/2000/svg" width="17.733" height="17.733" viewBox="0 0 17.733 17.733">
  <g id="Сгруппировать_26" data-name="Сгруппировать 26">
    <g id="Сгруппировать_25" data-name="Сгруппировать 25">
      <path id="Контур_61" data-name="Контур 61" d="M8.867,0a8.867,8.867,0,1,0,8.867,8.867A8.876,8.876,0,0,0,8.867,0Zm0,16.36A7.493,7.493,0,1,1,16.36,8.867,7.5,7.5,0,0,1,8.867,16.36Z" fill="#fff"/>
    </g>
  </g>
  <g id="Сгруппировать_28" data-name="Сгруппировать 28" transform="translate(4.746 4.684)">
    <g id="Сгруппировать_27" data-name="Сгруппировать 27">
      <path id="Контур_62" data-name="Контур 62" d="M144.577,138.672H141.83v-2.747a.687.687,0,0,0-1.374,0v2.747h-2.747a.687.687,0,1,0,0,1.374h2.747v2.747a.687.687,0,0,0,1.374,0v-2.747h2.747a.687.687,0,1,0,0-1.374Z" transform="translate(-137.022 -135.238)" fill="#fff"/>
    </g>
  </g>
</svg>
