<svg xmlns="http://www.w3.org/2000/svg" width="18.001" height="17.914" viewBox="0 0 18.001 17.914">
  <g id="_008-budget" data-name="008-budget" transform="translate(0 -1.238)">
    <g id="Сгруппировать_94" data-name="Сгруппировать 94" transform="translate(9.602 4.401)">
      <g id="Сгруппировать_93" data-name="Сгруппировать 93">
        <rect id="Прямоугольник_85" data-name="Прямоугольник 85" width="5.236" height="1.054" fill="#9593a3"/>
      </g>
    </g>
    <g id="Сгруппировать_96" data-name="Сгруппировать 96" transform="translate(6.439 1.238)">
      <g id="Сгруппировать_95" data-name="Сгруппировать 95">
        <path id="Контур_188" data-name="Контур 188" d="M183.15,7.014a6.553,6.553,0,0,1,2.565.9h.6v.41a6.711,6.711,0,0,1,1.558,1.7h.551v1.054h0a6.682,6.682,0,0,1,.318,4.006h5.977V1.238H183.15Zm5.271,1.955h-1.054V7.915h1.054Zm2.091,4.217h-1.054V12.132h1.054Zm0-2.109h-1.054V10.024h1.054Zm0-2.109h-1.054V7.915h1.054Zm2.091,4.184h-1.054V10.024H192.6Zm0-4.184h-1.054V7.915H192.6Zm-7.344-5.623H192.6V6.509h-7.345Z" transform="translate(-183.15 -1.238)" fill="#9593a3"/>
      </g>
    </g>
    <g id="Сгруппировать_98" data-name="Сгруппировать 98" transform="translate(0 8.012)">
      <g id="Сгруппировать_97" data-name="Сгруппировать 97">
        <path id="Контур_189" data-name="Контур 189" d="M9.508,195.542a5.533,5.533,0,0,0-3.939-1.631q-.139,0-.278.007A5.571,5.571,0,0,0,.007,199.2q-.007.138-.007.278a5.528,5.528,0,0,0,1.259,3.528q.087.106.18.209t.192.2q.1.1.2.192a5.571,5.571,0,0,0,7.475,0q.1-.093.2-.192t.192-.2a5.527,5.527,0,0,0,1.236-2.235,5.6,5.6,0,0,0,.2-1.5A5.533,5.533,0,0,0,9.508,195.542ZM5.57,198.237v1.054H4.623v.465H5.57v1.054H4.725a.729.729,0,0,0,.627.359h.565a.73.73,0,0,0,.729-.729H7.7a1.786,1.786,0,0,1-1.784,1.784H5.352a1.786,1.786,0,0,1-1.745-1.413H2.828v-1.054h.74v-.465h-.74v-1.054h.763a1.786,1.786,0,0,1,1.761-1.5h.565A1.786,1.786,0,0,1,7.7,198.522H6.647a.73.73,0,0,0-.729-.729H5.352a.731.731,0,0,0-.671.445Z" transform="translate(0 -193.911)" fill="#9593a3"/>
      </g>
    </g>
  </g>
</svg>
