<svg xmlns="http://www.w3.org/2000/svg" width="15.5" height="11.696" viewBox="0 0 15.5 11.696">
  <g id="Сгруппировать_23" data-name="Сгруппировать 23" transform="translate(0 -7.434)">
    <path id="Контур_57" data-name="Контур 57" d="M25.085,47.444H14.7a.775.775,0,1,1,0-1.551h10.39a.775.775,0,0,1,0,1.551Z" transform="translate(-10.36 -28.52)" fill="#fff"/>
    <path id="Контур_58" data-name="Контур 58" d="M25.085,28.613H14.7a.775.775,0,0,1,0-1.551h10.39a.775.775,0,0,1,0,1.551Z" transform="translate(-10.36 -14.556)" fill="#fff"/>
    <path id="Контур_59" data-name="Контур 59" d="M25.085,9.782H14.7a.775.775,0,0,1,0-1.551h10.39a.775.775,0,0,1,0,1.551Z" transform="translate(-10.36 -0.591)" fill="#fff"/>
    <circle id="Эллипс_13" data-name="Эллипс 13" cx="1.041" cy="1.041" r="1.041" transform="translate(0 7.434)" fill="#fff"/>
    <circle id="Эллипс_14" data-name="Эллипс 14" cx="1.041" cy="1.041" r="1.041" transform="translate(0 12.241)" fill="#fff"/>
    <circle id="Эллипс_15" data-name="Эллипс 15" cx="1.041" cy="1.041" r="1.041" transform="translate(0 17.047)" fill="#fff"/>
  </g>
</svg>
