<svg xmlns="http://www.w3.org/2000/svg" width="16.016" height="16.38" viewBox="0 0 16.016 16.38">
  <g id="calendar" transform="translate(-5.411)">
    <g id="Сгруппировать_70" data-name="Сгруппировать 70" transform="translate(5.411)">
      <path id="Контур_166" data-name="Контур 166" d="M119.076,258.613a.372.372,0,0,0-.372-.371h-1.3a.372.372,0,0,0-.372.371v1.3a.372.372,0,0,0,.372.372h1.3a.372.372,0,0,0,.372-.372v-1.3Z" transform="translate(-113.29 -249.577)" fill="#9593a3"/>
      <path id="Контур_167" data-name="Контур 167" d="M215.711,258.613a.371.371,0,0,0-.371-.371h-1.3a.372.372,0,0,0-.372.371v1.3a.372.372,0,0,0,.372.372h1.3a.372.372,0,0,0,.371-.372Z" transform="translate(-206.682 -249.577)" fill="#9593a3"/>
      <path id="Контур_168" data-name="Контур 168" d="M312.339,258.613a.372.372,0,0,0-.372-.371h-1.3a.372.372,0,0,0-.372.371v1.3a.372.372,0,0,0,.372.372h1.3a.372.372,0,0,0,.372-.372Z" transform="translate(-300.068 -249.577)" fill="#9593a3"/>
      <path id="Контур_169" data-name="Контур 169" d="M119.076,355.247a.371.371,0,0,0-.372-.372h-1.3a.371.371,0,0,0-.372.372v1.3a.372.372,0,0,0,.372.372h1.3a.372.372,0,0,0,.372-.372v-1.3Z" transform="translate(-113.29 -342.967)" fill="#9593a3"/>
      <path id="Контур_170" data-name="Контур 170" d="M215.711,355.247a.371.371,0,0,0-.371-.372h-1.3a.371.371,0,0,0-.372.372v1.3a.372.372,0,0,0,.372.372h1.3a.372.372,0,0,0,.371-.372Z" transform="translate(-206.682 -342.967)" fill="#9593a3"/>
      <path id="Контур_171" data-name="Контур 171" d="M312.339,355.247a.371.371,0,0,0-.371-.372h-1.3a.371.371,0,0,0-.372.372v1.3a.372.372,0,0,0,.372.372h1.3a.372.372,0,0,0,.371-.372v-1.3Z" transform="translate(-300.068 -342.967)" fill="#9593a3"/>
      <path id="Контур_172" data-name="Контур 172" d="M20,54.149V56.13a1.618,1.618,0,0,1-1.622,1.617H17.357a1.627,1.627,0,0,1-1.632-1.617V54.142H11.113V56.13a1.627,1.627,0,0,1-1.631,1.617H8.459A1.618,1.618,0,0,1,6.837,56.13V54.149a1.475,1.475,0,0,0-1.426,1.467V67.228A1.476,1.476,0,0,0,6.879,68.7h13.08a1.477,1.477,0,0,0,1.468-1.477V55.616A1.475,1.475,0,0,0,20,54.149ZM19.527,66.5a.635.635,0,0,1-.635.635H7.919a.635.635,0,0,1-.635-.635v-6a.635.635,0,0,1,.635-.635H18.892a.635.635,0,0,1,.635.635v6Z" transform="translate(-5.411 -52.325)" fill="#9593a3"/>
      <path id="Контур_173" data-name="Контур 173" d="M80.106,4.36h1.012a.556.556,0,0,0,.556-.556V.556A.556.556,0,0,0,81.118,0H80.106a.556.556,0,0,0-.556.556V3.8A.556.556,0,0,0,80.106,4.36Z" transform="translate(-77.062)" fill="#9593a3"/>
      <path id="Контур_174" data-name="Контур 174" d="M345.014,4.36h1.012a.556.556,0,0,0,.556-.556V.556A.556.556,0,0,0,346.026,0h-1.012a.556.556,0,0,0-.556.556V3.8A.556.556,0,0,0,345.014,4.36Z" transform="translate(-333.082)" fill="#9593a3"/>
    </g>
  </g>
</svg>
