<svg id="Сгруппировать_33" data-name="Сгруппировать 33" xmlns="http://www.w3.org/2000/svg" width="17.347" height="17.347" viewBox="0 0 17.347 17.347">
  <path id="Контур_64" data-name="Контур 64" d="M14.809,2.537a8.678,8.678,0,1,0,0,12.272A8.687,8.687,0,0,0,14.809,2.537ZM12.1,12.1a.667.667,0,0,1-.944,0L8.673,9.617l-2.6,2.6a.667.667,0,0,1-.944-.944l2.6-2.6L5.251,6.2A.667.667,0,0,1,6.2,5.251L8.673,7.73l2.36-2.36a.667.667,0,0,1,.944.944l-2.36,2.36L12.1,11.151A.667.667,0,0,1,12.1,12.1Z" transform="translate(0 0)" fill="#e37429"/>
</svg>
