<svg id="_001-cancel" data-name="001-cancel" xmlns="http://www.w3.org/2000/svg" width="16.333" height="16.333" viewBox="0 0 16.333 16.333">
  <g id="Сгруппировать_69" data-name="Сгруппировать 69" transform="translate(0 0)">
    <path id="Контур_164" data-name="Контур 164" d="M13.941,2.392A8.166,8.166,0,1,0,2.392,13.941,8.166,8.166,0,1,0,13.941,2.392Zm-.657,10.892A7.238,7.238,0,0,1,3.049,3.049,7.238,7.238,0,1,1,13.285,13.285Z" transform="translate(0 0)" fill="#e37429"/>
    <path id="Контур_165" data-name="Контур 165" d="M136.259,129.062a.463.463,0,0,0-.657,0L132.66,132l-2.942-2.942a.464.464,0,0,0-.657.657L132,132.66l-2.942,2.942a.466.466,0,0,0,.327.794.453.453,0,0,0,.327-.137l2.942-2.942,2.942,2.942a.467.467,0,0,0,.327.137.447.447,0,0,0,.327-.137.463.463,0,0,0,0-.657l-2.935-2.942,2.942-2.942A.463.463,0,0,0,136.259,129.062Z" transform="translate(-124.494 -124.494)" fill="#e37429"/>
  </g>
</svg>
