<svg xmlns="http://www.w3.org/2000/svg" width="76.915" height="24.5" viewBox="0 0 76.915 24.5">
  <g id="Сгруппировать_162" data-name="Сгруппировать 162" transform="translate(-36.824 -421.194)">
    <path id="Контур_207" data-name="Контур 207" d="M108.111,441.14a6.706,6.706,0,0,0-2.676-6.753,5.988,5.988,0,0,0-7.243-.042c-2.31,1.539-3.191,3.965-2.636,7.149l-37.652.581c.688-5.476-2.895-8.085-6.248-8.15-3.054-.059-7.176,2.976-6.148,8.417-1.759,0-3.5-.1-5.231.025-2.113.149-3.716-2.937-3.417-4.461.043-.22.257-.544.438-.578,1.405-.265,1.836-1.531,2.338-2.513a5.193,5.193,0,0,1,3.628-2.9c2.947-.659,5.913-1.258,8.894-1.733,1.988-.317,4.02-.35,6.026-.565a3.483,3.483,0,0,0,1.443-.507c2.051-1.3,4.133-2.565,6.087-4a18.255,18.255,0,0,1,9.807-3.665c5.665-.4,11.292-.5,16.795,1.07a31.9,31.9,0,0,1,5.771,2.4c3.21,1.654,6.479,2.827,10.175,2.549a11.369,11.369,0,0,1,3.318.4c1.44.331,1.674.668,1.557,2.113-.121,1.486-.39,2.96-.539,4.444a1.532,1.532,0,0,0,.24,1.129c1.49,1.347.789,2.869.32,4.281-.5,1.508-1.949,1.39-3.2,1.442A15.988,15.988,0,0,1,108.111,441.14ZM64.225,427.991c1.472-.036,1.472-.036,1.737,1.333a5.2,5.2,0,0,0,.636.047q4.584-.2,9.168-.407c2-.093,2.009-.1,2.325-2.021.22-1.335.4-2.677.584-3.945A17.192,17.192,0,0,0,64.225,427.991Zm15.975.787c3.645-.155,7.074-.3,10.5-.447.786-.033,1.652.038,1.994-.89.355-.965-.334-1.522-.963-2.071-.084-.074-.173-.142-.26-.213-3.017-2.436-6.585-2.591-10.216-2.429a.806.806,0,0,0-.528.561C80.527,425.06,80.379,426.835,80.2,428.778Z" fill="#9593a3"/>
    <path id="Контур_208" data-name="Контур 208" d="M84.686,482.941c2.537-.316,5.246,2.858,5.169,5.234a5.514,5.514,0,0,1-5.439,5.39,5.343,5.343,0,0,1-5.359-5.343A5.234,5.234,0,0,1,84.686,482.941Zm2.757,5.274a3.169,3.169,0,0,0-3.133-3.084,3.269,3.269,0,0,0-2.9,3.106,2.982,2.982,0,0,0,3.137,3.018A3.071,3.071,0,0,0,87.443,488.214Z" transform="translate(-32.755 -47.871)" fill="#9593a3"/>
    <path id="Контур_209" data-name="Контур 209" d="M302.719,485.038a5.267,5.267,0,0,1,5.2-5.658,5.363,5.363,0,1,1,.215,10.724C305.493,490.18,302.482,487.711,302.719,485.038Zm8.331-.15a3.1,3.1,0,0,0-2.9-3.221,3.552,3.552,0,0,0-3.274,3.1,3.305,3.305,0,0,0,3.1,2.96A3.188,3.188,0,0,0,311.051,484.888Z" transform="translate(-206.224 -45.13)" fill="#9593a3"/>
  </g>
</svg>
