<svg xmlns="http://www.w3.org/2000/svg" width="71.056" height="28.733" viewBox="0 0 71.056 28.733">
  <g id="Сгруппировать_164" data-name="Сгруппировать 164" transform="translate(145.957 -83.693)">
    <path id="Контур_213" data-name="Контур 213" d="M-143.566,107.38c-.916-.227-1.713-.582-1.76-1.746a6.972,6.972,0,0,0-.385-1.161,5.185,5.185,0,0,1,.256-3.854,23.69,23.69,0,0,0,1.339-2.347,5.57,5.57,0,0,1,3.055-3.236c1.649-.7,3.26-1.49,4.9-2.221.345-.154.734-.206,1.092-.335a5.043,5.043,0,0,0,1.255-.526c2.408-1.74,4.818-3.478,7.175-5.286a13.48,13.48,0,0,1,8.459-2.783c7.63-.026,15.26-.172,22.89-.191,4.418-.011,8.836.116,13.254.207,2.6.054,3.067.528,3.891,2.923,1.832,5.326,1.575,10.894,1.994,16.381a2.937,2.937,0,0,0,.877,2.322,1.181,1.181,0,0,1-.43,1.994c-2.017.317-4.057.491-6.121.727.306-4.744-2.163-7.537-6.23-7.934a6.227,6.227,0,0,0-4.25,1.154,7.648,7.648,0,0,0-3.111,6.612l-31.648.371c.228-5.312-2.857-8-6.108-8.132-3.889-.161-7.48,2.012-7.644,7.64C-141.792,107.757-142.686,107.6-143.566,107.38Zm46.594-22.16c-.318-.023-.571-.058-.824-.056-4.6.035-9.194.092-13.791.1-.851,0-1.126.291-1.114,1.124.031,2.151,0,4.3-.025,6.454-.009.709.216,1.126,1,1.124,4.89-.007,9.78,0,14.755,0Zm2.611,8.439c.583,0,1.016,0,1.449,0q4.988-.05,9.977-.1c1.2-.013,1.439-.187,1.329-1.4-.175-1.926-.433-3.846-.75-5.753a1.31,1.31,0,0,0-.863-.889c-3.724-.177-7.452-.272-11.142-.388ZM-116.313,94c.684.015.953-.238,1.017-.886.186-1.9.4-3.8.6-5.7.016-.146.007-.295.022-.441.166-1.657.167-1.66-1.477-1.6-1.118.043-2.235.114-3.354.138a7.452,7.452,0,0,0-4.74,1.633c-1.092.9-2.169,1.813-3.3,2.651a4.5,4.5,0,0,0-1.645,3.546c-.06.634.163.833.781.825,2.032-.025,4.064-.01,6.1-.01v-.17C-120.315,93.982-118.313,93.955-116.313,94Z" transform="translate(0)" fill="#9593a3"/>
    <path id="Контур_214" data-name="Контур 214" d="M-109.32,188.657a5.561,5.561,0,0,1,5.89-5.556c2.72-.007,5.26,2.73,5.234,5.64a5.49,5.49,0,0,1-5.58,5.505A5.413,5.413,0,0,1-109.32,188.657Zm5.581,4.174a4.174,4.174,0,0,0,4.1-4.116,4.149,4.149,0,0,0-4.086-4.122,4.1,4.1,0,0,0-4.158,4.112A4.1,4.1,0,0,0-103.739,192.831Z" transform="translate(-30.157 -81.827)" fill="#9593a3"/>
    <path id="Контур_215" data-name="Контур 215" d="M153.043,183.24a5.541,5.541,0,0,1,5.554,5.618,5.547,5.547,0,1,1-5.554-5.618Zm4.1,5.471a4.118,4.118,0,0,0-8.232.227,4.133,4.133,0,0,0,4.2,4A4.067,4.067,0,0,0,157.147,188.711Z" transform="translate(-241.56 -81.941)" fill="#9593a3"/>
  </g>
</svg>
