<svg xmlns="http://www.w3.org/2000/svg" width="70.36" height="28.733" viewBox="0 0 70.36 28.733">
  <g id="Сгруппировать_163" data-name="Сгруппировать 163" transform="translate(-323.108 -91.014)">
    <path id="Контур_210" data-name="Контур 210" d="M372.748,112.913h-26.99A7.648,7.648,0,0,0,342,106.4a7.112,7.112,0,0,0-4.368-1.016,7.71,7.71,0,0,0-7.075,7.549l-6.69-.859c-.2-1.292-.336-2.5-.574-3.68a5.23,5.23,0,0,1,.336-3.709c.344-.638.442-1.4.733-2.077a1.484,1.484,0,0,1,.723-.818,64.818,64.818,0,0,1,6.594-1.746c2.967-.531,5.983-.79,8.974-1.2a2.927,2.927,0,0,0,1.205-.452c2.011-1.357,3.932-2.861,6.008-4.107a23.507,23.507,0,0,1,10.151-3.01,96.552,96.552,0,0,1,16.85.278q5.908.5,11.81,1.067a13.157,13.157,0,0,1,2.011.419c.142.037.237.255.354.39a1.769,1.769,0,0,1-.418.21c-.67.137-.789.335-.281.833,1.049,1.027,2.146,2.012,3.287,2.936,1.609,1.3,1.779,1.852,1.052,3.839a1.736,1.736,0,0,0,.032.933,13.7,13.7,0,0,1,.438,1.4c.151,1.216.279,2.44.317,3.663.076,2.435-1.24,4.1-3.873,4.993-.487.166-.99.284-1.571.449a7.855,7.855,0,0,0-3.471-6.118,7.242,7.242,0,0,0-4.462-1.213C376.179,105.5,373.763,108.038,372.748,112.913ZM361,92.149c-5.218-.8-15.328,3.321-17.671,7.2,1.417-.081,2.777-.161,4.137-.236,3.7-.2,7.4-.4,11.093-.618a.715.715,0,0,0,.53-.362C359.737,96.163,360.353,94.182,361,92.149Zm1.376,6.131,12.814-.714c-.533-1.633-1.011-3.146-1.539-4.641a.822.822,0,0,0-.618-.354c-1.443-.107-2.888-.21-4.334-.242-1.76-.04-3.522-.009-5.378-.009Zm13.2-5.6c.585,1.628,1.106,3.1,1.653,4.557a.5.5,0,0,0,.4.2c1.79-.09,3.581-.187,5.368-.319a.905.905,0,0,0,.63-.384c.068-.117-.105-.449-.254-.6-.821-.845-1.652-1.682-2.517-2.481a1.916,1.916,0,0,0-.959-.5C378.522,92.965,377.133,92.846,375.576,92.682Zm13.206,7.142h-1.105c-.393,0-.788-.02-1.178.011-.174.014-.464.106-.484.2a.781.781,0,0,0,.173.564,11.59,11.59,0,0,0,1.048,1.136.974.974,0,0,0,.572.244c.734.039,1.47.033,2.2.048,1.631.035,1.634.022,1.534-1.613-.027-.434-.185-.614-.627-.6C390.207,99.842,389.495,99.826,388.782,99.825Zm-64.232,5.236c2.33-.741,4.7-.742,6.715-2.407-1.786.173-3.367.326-4.948.48a6.812,6.812,0,0,0-.948.116.646.646,0,0,0-.418.308C324.8,103.985,324.71,104.435,324.55,105.061Z" fill="#9593a3"/>
    <path id="Контур_211" data-name="Контур 211" d="M680.219,203.069a6.565,6.565,0,1,1-13.13-.118,6.565,6.565,0,1,1,13.13.118Zm-6.591,4.644A4.672,4.672,0,0,0,678.354,203a4.689,4.689,0,1,0-9.379,0A4.7,4.7,0,0,0,673.628,207.713Z" transform="translate(-293.242 -89.865)" fill="#9593a3"/>
    <path id="Контур_212" data-name="Контур 212" d="M393.4,203.267a6.557,6.557,0,0,1-13.113-.119,6.557,6.557,0,1,1,13.113.119Zm-6.6,4.563a4.7,4.7,0,1,0-.1-9.4,4.592,4.592,0,0,0-4.525,4.672A4.664,4.664,0,0,0,386.8,207.83Z" transform="translate(-48.745 -89.99)" fill="#9593a3"/>
  </g>
</svg>
