<svg xmlns="http://www.w3.org/2000/svg" width="17.496" height="16.621" viewBox="0 0 17.496 16.621">
  <path id="_005-chat" data-name="005-chat" d="M8.748,1.5C3.924,1.5,0,5.032,0,9.373a7.278,7.278,0,0,0,1.39,4.258,6.8,6.8,0,0,1-1.3,3.992.292.292,0,0,0,.206.5.273.273,0,0,0,.041,0,15.577,15.577,0,0,0,4.846-1.557,9.492,9.492,0,0,0,3.57.685c4.824,0,8.748-3.532,8.748-7.873S13.571,1.5,8.748,1.5ZM4.665,10.539A1.166,1.166,0,1,1,5.832,9.373,1.168,1.168,0,0,1,4.665,10.539Zm4.082,0A1.166,1.166,0,1,1,9.914,9.373,1.168,1.168,0,0,1,8.748,10.539Zm4.082,0A1.166,1.166,0,1,1,14,9.373,1.168,1.168,0,0,1,12.83,10.539Z" transform="translate(0 -1.5)" fill="#9593a3"/>
</svg>
