<svg xmlns="http://www.w3.org/2000/svg" width="17" height="17" viewBox="0 0 17 17">
  <g id="Сгруппировать_99" data-name="Сгруппировать 99" transform="translate(-4733 -2390)">
    <g id="_001-clock" data-name="001-clock" transform="translate(4733 2390)">
      <g id="Сгруппировать_79" data-name="Сгруппировать 79" transform="translate(0 0)">
        <path id="Контур_178" data-name="Контур 178" d="M15.86,4.233A8.464,8.464,0,0,0,12.767,1.14,8.314,8.314,0,0,0,8.5,0,8.314,8.314,0,0,0,4.234,1.14,8.462,8.462,0,0,0,1.14,4.233,8.314,8.314,0,0,0,0,8.5a8.316,8.316,0,0,0,1.14,4.267A8.464,8.464,0,0,0,4.233,15.86,8.315,8.315,0,0,0,8.5,17a8.315,8.315,0,0,0,4.267-1.14,8.462,8.462,0,0,0,3.093-3.093A8.316,8.316,0,0,0,17,8.5,8.316,8.316,0,0,0,15.86,4.233Zm-2.147,7.288a6,6,0,0,1-2.191,2.192,5.885,5.885,0,0,1-3.022.808,5.886,5.886,0,0,1-3.022-.808,6,6,0,0,1-2.191-2.192A5.884,5.884,0,0,1,2.479,8.5a5.885,5.885,0,0,1,.808-3.022A6,6,0,0,1,5.479,3.287,5.885,5.885,0,0,1,8.5,2.479a5.885,5.885,0,0,1,3.022.808,6,6,0,0,1,2.191,2.191A5.885,5.885,0,0,1,14.521,8.5,5.885,5.885,0,0,1,13.713,11.521Z" transform="translate(0 0)" fill="#9593a3"/>
        <path id="Контур_179" data-name="Контур 179" d="M150.354,109.631H149.6a.365.365,0,0,0-.379.379v4.171h-2.654a.365.365,0,0,0-.379.379v.758a.365.365,0,0,0,.379.379h3.792a.365.365,0,0,0,.379-.379V110.01a.365.365,0,0,0-.379-.379Z" transform="translate(-140.65 -105.531)" fill="#9593a3"/>
      </g>
    </g>
  </g>
</svg>
