<svg id="_004-clock" data-name="004-clock" xmlns="http://www.w3.org/2000/svg" width="21.302" height="21.302" viewBox="0 0 21.302 21.302">
  <g id="Сгруппировать_128" data-name="Сгруппировать 128" transform="translate(3.373 3.373)">
    <g id="Сгруппировать_127" data-name="Сгруппировать 127">
      <path id="Контур_201" data-name="Контур 201" d="M88.339,81.06a7.279,7.279,0,1,0,7.279,7.279A7.287,7.287,0,0,0,88.339,81.06Zm-.624,1.4a.624.624,0,0,1,1.248,0V83.7a.624.624,0,0,1-1.248,0ZM82.46,88.963a.624.624,0,0,1,0-1.248h1.215a.624.624,0,0,1,0,1.248Zm2.815,3.324-.652.652a.624.624,0,1,1-.883-.882l.652-.652a.624.624,0,1,1,.883.882Zm0-7.013a.624.624,0,0,1-.883,0l-.652-.652a.624.624,0,0,1,.883-.882l.652.652A.624.624,0,0,1,85.275,85.273Zm3.688,8.947a.624.624,0,0,1-1.248,0V93a.624.624,0,0,1,1.248,0Zm.944-3a.624.624,0,0,1-.846-.25l-1.27-2.333a.624.624,0,0,1-.076-.3V85.792a.624.624,0,0,1,1.248,0V88.18l1.194,2.194A.624.624,0,0,1,89.906,91.22Zm1.5-6.829.652-.652a.624.624,0,0,1,.883.882l-.652.652a.624.624,0,1,1-.883-.882Zm1.534,8.548a.624.624,0,0,1-.883,0l-.652-.652a.624.624,0,0,1,.883-.882l.652.652A.624.624,0,0,1,92.937,92.939Zm1.281-3.976H93a.624.624,0,0,1,0-1.248h1.215a.624.624,0,0,1,0,1.248Z" transform="translate(-81.06 -81.06)" fill="#9593a3"/>
    </g>
  </g>
  <g id="Сгруппировать_130" data-name="Сгруппировать 130">
    <g id="Сгруппировать_129" data-name="Сгруппировать 129">
      <path id="Контур_202" data-name="Контур 202" d="M18.183,3.12A10.651,10.651,0,0,0,3.12,18.183,10.651,10.651,0,0,0,18.183,3.12ZM10.651,19.178a8.527,8.527,0,1,1,8.527-8.527A8.536,8.536,0,0,1,10.651,19.178Z" fill="#9593a3"/>
    </g>
  </g>
</svg>
