<svg xmlns="http://www.w3.org/2000/svg" width="19.07" height="13" viewBox="0 0 19.07 13">
  <g id="_002-debit-card" data-name="002-debit-card" transform="translate(0 -56.035)">
    <path id="Контур_199" data-name="Контур 199" d="M18.259,56.035H.811A.812.812,0,0,0,0,56.846V68.224a.812.812,0,0,0,.811.811H18.259a.812.812,0,0,0,.811-.811V56.846A.812.812,0,0,0,18.259,56.035Zm-15.2,10.6H2.25V64.091h.812Zm1.625,0H3.875V64.091h.812Zm1.625,0H5.5V64.091h.812Zm8.788.392a1.468,1.468,0,0,1-.83-.255,1.476,1.476,0,1,1,0-2.44,1.476,1.476,0,1,1,.83,2.7Zm3.428-5.267H.542V59.508H18.528Z" fill="#9593a3"/>
  </g>
</svg>
