<?xml version="1.0" encoding="UTF-8"?>
<!DOCTYPE svg PUBLIC "-//W3C//DTD SVG 1.0//EN" "http://www.w3.org/TR/2001/REC-SVG-20010904/DTD/svg10.dtd">
<!-- Creator: CorelDRAW X6 -->
<svg xmlns="http://www.w3.org/2000/svg" xml:space="preserve" width="68px" height="81px" version="1.0" shape-rendering="geometricPrecision" text-rendering="geometricPrecision" image-rendering="optimizeQuality" fill-rule="evenodd" clip-rule="evenodd"
viewBox="0 0 51215 61000"
 xmlns:xlink="http://www.w3.org/1999/xlink">
 <g id="Слой_x0020_1">
  <metadata id="CorelCorpID_0Corel-Layer"/>
  <path fill="white" d="M0 6324l0 48353c0,3654 2390,6044 6044,6044 48179,0 42308,4252 42308,-20399 -1743,1167 -4042,3243 -6044,3778l0 10577 -36264 0 0 -48353 36264 0 0 10577c2002,535 4301,2611 6044,3778 0,-24650 5871,-20399 -42308,-20399 -3655,0 -6044,2390 -6044,6044z"/>
  <path fill="white" d="M36264 27478l-15110 0 0 6044 15110 0 0 8311 14951 -11551 -7505 -5717c-2609,-1958 -4792,-3620 -7446,-5397l0 8311z"/>
 </g>
</svg>
