<svg id="Сгруппировать_32" data-name="Сгруппировать 32" xmlns="http://www.w3.org/2000/svg" width="17.347" height="17" viewBox="0 0 17.347 17">
  <g id="Сгруппировать_31" data-name="Сгруппировать 31">
    <path id="Контур_63" data-name="Контур 63" d="M-436.326-9A8.588,8.588,0,0,0-445-.5,8.588,8.588,0,0,0-436.326,8a8.589,8.589,0,0,0,8.674-8.5A8.588,8.588,0,0,0-436.326-9Zm4.123,6.117-.824.807L-434.7-3.719l-.636.623,1.677,1.643-4.113,4.03L-439.453.935l-.636.623,1.677,1.643-.41.4-.008-.008a.324.324,0,0,1-.207.146l-1.564.342a.33.33,0,0,1-.071.008A.328.328,0,0,1-440.9,4a.314.314,0,0,1-.087-.295l.349-1.532a.319.319,0,0,1,.149-.2l-.008-.008,6.619-6.487a.253.253,0,0,1,.352,0l1.325,1.3A.24.24,0,0,1-432.2-2.883Z" transform="translate(444.999 9)" fill="#e37429"/>
  </g>
</svg>
