<svg id="Сгруппировать_35" data-name="Сгруппировать 35" xmlns="http://www.w3.org/2000/svg" width="17.347" height="17.347" viewBox="0 0 17.347 17.347">
  <path id="Контур_66" data-name="Контур 66" d="M-384.314,131.142a2.3,2.3,0,0,1-2.294-2.294,2.3,2.3,0,0,1,2.294-2.294,2.264,2.264,0,0,1,1.037.259,1.372,1.372,0,0,0-.578,1.118,1.369,1.369,0,0,0,1.8,1.3A2.294,2.294,0,0,1-384.314,131.142Z" transform="translate(393.007 -120.174)" fill="#e37429"/>
  <path id="Контур_67" data-name="Контур 67" d="M-558.13-53a8.7,8.7,0,0,0-8.674,8.673,8.7,8.7,0,0,0,8.674,8.673,8.7,8.7,0,0,0,8.673-8.673A8.7,8.7,0,0,0-558.13-53Zm5.528,8.893c-.1.112-2.51,2.74-5.528,2.74s-5.428-2.628-5.528-2.74a.329.329,0,0,1,0-.439c.1-.112,2.51-2.74,5.528-2.74s5.428,2.629,5.528,2.74A.329.329,0,0,1-552.6-44.107Z" transform="translate(566.804 53)" fill="#e37429"/>
</svg>
