<svg xmlns="http://www.w3.org/2000/svg" width="17.896" height="17.897" viewBox="0 0 17.896 17.897">
  <g id="_007-goal" data-name="007-goal" transform="translate(-0.001)">
    <g id="Сгруппировать_88" data-name="Сгруппировать 88" transform="translate(11.667 4.229)">
      <g id="Сгруппировать_87" data-name="Сгруппировать 87">
        <path id="Контур_185" data-name="Контур 185" d="M339.906,127.525,338,124.67l1.9-2.855a.524.524,0,0,0-.436-.815h-3.705v4.719a1.575,1.575,0,0,1-1.573,1.573h-.428a1.57,1.57,0,0,0,1.476,1.049h4.229a.524.524,0,0,0,.436-.815Z" transform="translate(-333.764 -121)" fill="#9593a3"/>
      </g>
    </g>
    <g id="Сгруппировать_90" data-name="Сгруппировать 90" transform="translate(5.244 1.049)">
      <g id="Сгруппировать_89" data-name="Сгруппировать 89">
        <path id="Контур_186" data-name="Контур 186" d="M155.8,30H150v8.424h6.851a.524.524,0,0,0,.524-.524V31.608A1.6,1.6,0,0,0,155.8,30Z" transform="translate(-150.001 -30)" fill="#9593a3"/>
      </g>
    </g>
    <g id="Сгруппировать_92" data-name="Сгруппировать 92" transform="translate(0.001)">
      <g id="Сгруппировать_91" data-name="Сгруппировать 91" transform="translate(0)">
        <path id="Контур_187" data-name="Контур 187" d="M5.768,16.848H4.2V1.049a1.049,1.049,0,1,0-2.1,0v15.8H.525a.524.524,0,0,0,0,1.049H5.768a.524.524,0,1,0,0-1.049Z" transform="translate(-0.001)" fill="#9593a3"/>
      </g>
    </g>
  </g>
</svg>
