<svg xmlns="http://www.w3.org/2000/svg" width="13.503" height="18.338" viewBox="0 0 13.503 18.338">
  <g id="_002-map" data-name="002-map" transform="translate(-12.883)">
    <path id="Контур_180" data-name="Контур 180" d="M19.634,0a6.759,6.759,0,0,0-6.751,6.751,6.586,6.586,0,0,0,.59,2.756,42.568,42.568,0,0,0,5.876,8.7.376.376,0,0,0,.569,0,42.589,42.589,0,0,0,5.876-8.7,6.583,6.583,0,0,0,.59-2.756A6.76,6.76,0,0,0,19.634,0Zm0,10.258a3.507,3.507,0,1,1,3.507-3.507A3.511,3.511,0,0,1,19.634,10.258Z" transform="translate(0)" fill="#9593a3"/>
  </g>
</svg>
