<svg xmlns="http://www.w3.org/2000/svg" width="19.896" height="16.166" viewBox="0 0 19.896 16.166">
  <g id="_006-location" data-name="006-location" transform="translate(0 -48)">
    <g id="Сгруппировать_82" data-name="Сгруппировать 82" transform="translate(2.487 60.435)">
      <g id="Сгруппировать_81" data-name="Сгруппировать 81">
        <path id="Контур_182" data-name="Контур 182" d="M77.057,368a1.86,1.86,0,0,0-1.751,1.244h-7.69a1.865,1.865,0,1,0,0,1.244h7.69A1.862,1.862,0,1,0,77.057,368Z" transform="translate(-64 -368)" fill="#9593a3"/>
      </g>
    </g>
    <g id="Сгруппировать_84" data-name="Сгруппировать 84" transform="translate(0 48)">
      <g id="Сгруппировать_83" data-name="Сгруппировать 83">
        <path id="Контур_183" data-name="Контур 183" d="M4.352,48A4.357,4.357,0,0,0,0,52.352c0,2.233,3.492,6.189,3.89,6.633a.622.622,0,0,0,.925,0c.4-.444,3.89-4.4,3.89-6.633A4.357,4.357,0,0,0,4.352,48Zm0,6.218a1.865,1.865,0,1,1,1.865-1.865A1.866,1.866,0,0,1,4.352,54.218Z" transform="translate(0 -48)" fill="#9593a3"/>
      </g>
    </g>
    <g id="Сгруппировать_86" data-name="Сгруппировать 86" transform="translate(11.192 48)">
      <g id="Сгруппировать_85" data-name="Сгруппировать 85">
        <path id="Контур_184" data-name="Контур 184" d="M292.352,48A4.357,4.357,0,0,0,288,52.352c0,2.233,3.492,6.189,3.89,6.633a.622.622,0,0,0,.925,0c.4-.444,3.89-4.4,3.89-6.633A4.357,4.357,0,0,0,292.352,48Zm0,6.218a1.865,1.865,0,1,1,1.865-1.865A1.866,1.866,0,0,1,292.352,54.218Z" transform="translate(-288 -48)" fill="#9593a3"/>
      </g>
    </g>
  </g>
</svg>
