<svg xmlns="http://www.w3.org/2000/svg" width="81" height="49.334" viewBox="0 0 81 49.334">
  <g id="Сгруппировать_30" data-name="Сгруппировать 30" transform="translate(-524.735 -157.601)">
    <path id="Контур_1" data-name="Контур 1" d="M530.457,222.341a2.007,2.007,0,0,1-.1,1.466,2.946,2.946,0,0,1-.948,1.116,4.371,4.371,0,0,1,1.394,1.394,3.319,3.319,0,0,1,.486,1.889,2.532,2.532,0,0,1-.43,1.315,3.218,3.218,0,0,1-1.036.98,4.584,4.584,0,0,1-.972.4,7.534,7.534,0,0,1-1.052.215q-.543.071-1.1.1t-1.131.048l-.829-10.869q.813-.063,1.682-.079a7.314,7.314,0,0,1,1.657.151,3.856,3.856,0,0,1,1.418.606,2.747,2.747,0,0,1,.964,1.267m-1.61,4.75a1.592,1.592,0,0,0-.821-.67,3.189,3.189,0,0,0-1.06-.175l.064,3.347a2.229,2.229,0,0,0,1.044-.183,1.641,1.641,0,0,0,.773-.725q.08-.366.135-.8A1.269,1.269,0,0,0,528.847,227.09Zm-.7-5.1a2.317,2.317,0,0,1-.454-.207.7.7,0,0,0-.518-.064l-.143,3a3.753,3.753,0,0,0,.8-.151.978.978,0,0,0,.6-.55,2.965,2.965,0,0,0,.119-.51,2.3,2.3,0,0,0,.016-.542,1.807,1.807,0,0,0-.127-.526A1.331,1.331,0,0,0,528.146,221.99Z" transform="translate(0 -36.627)" fill="#e37429"/>
    <path id="Контур_2" data-name="Контур 2" d="M544.589,233.985a.755.755,0,0,1-.128-.43.546.546,0,0,0-.191-.415h-1.5a1.243,1.243,0,0,0-.207.431,3.351,3.351,0,0,1-.159.462,1.361,1.361,0,0,1-.51-.1,3.784,3.784,0,0,0-.494-.159l2.231-8.67,2.136,8.67Zm-1.5-1.8,1.131-.063-.542-1.53Z" transform="translate(-9.733 -39.426)" fill="#e37429"/>
    <path id="Контур_3" data-name="Контур 3" d="M557.048,227.114a1.619,1.619,0,0,1-.079,1.163,2.216,2.216,0,0,1-.765.893,3.689,3.689,0,0,1,1.115,1.123,2.588,2.588,0,0,1,.383,1.506,1.959,1.959,0,0,1-.334,1.052,2.535,2.535,0,0,1-.829.781,3.7,3.7,0,0,1-.789.319,7.019,7.019,0,0,1-.836.175q-.43.064-.884.088c-.3.015-.6.029-.9.04l-.653-8.7q.637-.048,1.339-.064a5.47,5.47,0,0,1,1.331.128,3.28,3.28,0,0,1,1.131.486,2.166,2.166,0,0,1,.773,1.012m-1.291,3.793a1.25,1.25,0,0,0-.654-.534,2.61,2.61,0,0,0-.845-.136l.048,2.678a1.923,1.923,0,0,0,.837-.151,1.254,1.254,0,0,0,.614-.582,4.174,4.174,0,0,0,.119-.646A1,1,0,0,0,555.757,230.907Zm-.558-4.08a3.779,3.779,0,0,1-.367-.175.6.6,0,0,0-.415-.048l-.111,2.406a3.428,3.428,0,0,0,.637-.127.764.764,0,0,0,.478-.431,2.276,2.276,0,0,0,.1-.845A1.184,1.184,0,0,0,555.2,226.827Z" transform="translate(-16.2 -39.647)" fill="#e37429"/>
    <path id="Контур_4" data-name="Контур 4" d="M569.286,230.389v3.395l-1.386.287-.048-4.032-1.626-3.506-.574-1.147.064-.064,1.849.127,1.02,3.156.063.047.128-.111.972-3.092v-.064a3.873,3.873,0,0,1,.9-.152q.47-.023.932-.087Z" transform="translate(-23.897 -39.449)" fill="#e37429"/>
    <path id="Контур_5" data-name="Контур 5" d="M530.72,249.987a1.244,1.244,0,0,1-.518.144q-.28.016-.574.008t-.574.007a1.412,1.412,0,0,0-.517.128l.781,9.323-2.263-.207-.08-9.036a2.208,2.208,0,0,0-1.02-.048,6.644,6.644,0,0,1-1.02.111,3.091,3.091,0,0,1-.072-.869q.024-.454.007-.9l5.435-.208h.271Z" transform="translate(-0.072 -53.053)" fill="#fff"/>
    <path id="Контур_6" data-name="Контур 6" d="M544.573,256.173a2.369,2.369,0,0,1-.04.892,2.667,2.667,0,0,1-.335.781,3.132,3.132,0,0,1-.558.662,5.048,5.048,0,0,1-.709.534l1.227,3.506-.924.128a16.75,16.75,0,0,1-.965-1.506q-.438-.773-.916-1.49a10.974,10.974,0,0,0-.159,1.458q-.033.741-.128,1.475a3.534,3.534,0,0,1-.717.064,4.031,4.031,0,0,1-.749-.064l.574-8.845q.637.064,1.339.167a5.532,5.532,0,0,1,1.315.359,3.531,3.531,0,0,1,1.084.7,2.429,2.429,0,0,1,.661,1.179m-1.594-.064-.127-.127a3.735,3.735,0,0,1-.295-.3.572.572,0,0,0-.359-.183,2.59,2.59,0,0,0-.247-.08.308.308,0,0,0-.247.048l-.239,2.933a3.692,3.692,0,0,0,.7-.128,1.16,1.16,0,0,0,.59-.414,1.578,1.578,0,0,0,.279-.837A4.03,4.03,0,0,0,542.978,256.11Z" transform="translate(-8.682 -56.164)" fill="#fff"/>
    <path id="Контур_7" data-name="Контур 7" d="M555.661,262.606a.756.756,0,0,1-.127-.43.546.546,0,0,0-.192-.415h-1.5a1.242,1.242,0,0,0-.207.431,3.371,3.371,0,0,1-.159.462,1.363,1.363,0,0,1-.51-.1,3.7,3.7,0,0,0-.494-.159l2.231-8.67,2.136,8.67Zm-1.5-1.8,1.132-.064-.542-1.53Z" transform="translate(-16.2 -56.142)" fill="#fff"/>
    <path id="Контур_8" data-name="Контур 8" d="M568.374,258.873l.112-1.02.048-4.048,1.626.51-.765,8.367-3.363-4.1q-.048-.079-.112-.064l-.047.064.4,4.144H564.9l-1.355-8.925,4.781,5.067Z" transform="translate(-22.666 -56.187)" fill="#fff"/>
    <path id="Контур_9" data-name="Контур 9" d="M581.773,253.806l.326.454q.12.167.231.311a.618.618,0,0,0,.127.144l-.048.016c-.053.032-.154.1-.3.2a4.483,4.483,0,0,0-.47.374,2.489,2.489,0,0,0-.43.51,1.131,1.131,0,0,0-.183.621,1.679,1.679,0,0,0,.263.781q.247.414.526.885a7.537,7.537,0,0,1,.494,1,2.715,2.715,0,0,1,.2,1.116,2.475,2.475,0,0,1-.287,1.06,4.1,4.1,0,0,1-.542.789,5.437,5.437,0,0,1-.749.669l-.765-.749a1.62,1.62,0,0,0,.486-.375,2.172,2.172,0,0,0,.335-.589,2.61,2.61,0,0,0,.151-.965,2.329,2.329,0,0,0-.207-1.02,8.145,8.145,0,0,0-.454-.821,8.445,8.445,0,0,1-.446-.8,1.87,1.87,0,0,1-.167-.948,2.131,2.131,0,0,1,.334-1.012,5.243,5.243,0,0,1,.654-.853,7.568,7.568,0,0,1,.924-.8" transform="translate(-32.193 -56.187)" fill="#fff"/>
    <path id="Контур_10" data-name="Контур 10" d="M588.375,255.616a1.837,1.837,0,0,0-.04.813,8.075,8.075,0,0,1,.1.813,4.165,4.165,0,0,1,.861-.072q.446.008.908.008l.542,1.052-2.263.159-.111.128v4.367a1.962,1.962,0,0,1-.59-.183q-.271-.135-.574-.263l-.335-8.478,4.1.431-.558,1.291a7.526,7.526,0,0,0-1.171-.056,6.673,6.673,0,0,1-.868-.008" transform="translate(-36.293 -56.276)" fill="#fff"/>
    <path id="Контур_11" data-name="Контур 11" d="M601.375,254.962q-.59.112-1.163.183a7.108,7.108,0,0,1-1.227.04l-.351.064.3,1.625,1.657.048q.127.319.287.637a2.989,2.989,0,0,1,.239.67,3.319,3.319,0,0,1-1-.024,3.794,3.794,0,0,0-1.02-.04q.031.7.008,1.482a10.584,10.584,0,0,0,.056,1.5,1.735,1.735,0,0,0,.542.072q.271-.007.549-.032l.558-.048a2.867,2.867,0,0,1,.566.008l.111,1.259-.829.111-2.916.176-.366-8.75,3.745-.175h.191Z" transform="translate(-42.424 -56.164)" fill="#fff"/>
    <path id="Контур_12" data-name="Контур 12" d="M613,256.173a2.364,2.364,0,0,1-.04.892,2.664,2.664,0,0,1-.334.781,3.158,3.158,0,0,1-.558.662,5.08,5.08,0,0,1-.709.534l1.227,3.506-.924.128a16.831,16.831,0,0,1-.965-1.506q-.438-.773-.916-1.49a10.975,10.975,0,0,0-.159,1.458q-.033.741-.128,1.475a3.531,3.531,0,0,1-.717.064,4.025,4.025,0,0,1-.749-.064l.574-8.845q.637.064,1.339.167a5.533,5.533,0,0,1,1.315.359,3.532,3.532,0,0,1,1.084.7,2.428,2.428,0,0,1,.661,1.179m-1.594-.064-.128-.127a3.809,3.809,0,0,1-.295-.3.572.572,0,0,0-.358-.183q-.128-.048-.247-.08a.309.309,0,0,0-.247.048l-.239,2.933a3.689,3.689,0,0,0,.7-.128,1.159,1.159,0,0,0,.589-.414,1.574,1.574,0,0,0,.279-.837A4.03,4.03,0,0,0,611.4,256.11Z" transform="translate(-48.645 -56.164)" fill="#fff"/>
    <path id="Контур_13" data-name="Контур 13" d="M597.584,196.1s.2.969-.218-2.245c-1.026-7.961-8.032-14.459-27.249-10.731-2.67.518-3.818-7.685-6.23-7.848-1.79-.121-10.728,4.084-12.632,5.307-.872.56-.758,3.367.234,4.142,1.316,1.027,4.745,0,7.284-1.024,1.371-.553,4.81,1.94,5.065,3.4.606,3.45.25,8.94,5.273,13.658,0,0,.229,2.468.64,2.376.187-.041.392-.383.561-.745.2-.436.652.923,1.175,1.015.9.16-.553-1.819-.21-1.707.575.189.857.63,1.446.34.851-.419-1.239-1.592-1.239-1.592s1.155-.383.926-.795-2.8-.156-2.8-.156-1.894-4.037-1.165-5.785c.739-1.77,2.719,1.622,5.187,5.02s9.786,9.874,17.19,9.6a5.344,5.344,0,0,0,3.854,4.961s-10.327,1.725-9.05,2.855c2.163,1.914,8.962,1.058,11.5-.326,2.512-1.371-2.9-11.754-.11-11.754.515,0,5.886,12.251,21.209,10.577,1.133-.124,2.747-.958,2.649-1.4-.158-.712-1.251.11-4.339.176-12.094.257-18.863-17.156-18.953-17.32" transform="translate(-15.145 -10.321)" fill="#f6a72e"/>
    <path id="Контур_14" data-name="Контур 14" d="M554.884,185.753c-.62.732-2.8.144-2.8.144s-.107-.175,2.817-1.515c.312-.143.168,1.156-.014,1.371" transform="translate(-15.97 -15.634)" fill="#5e280b"/>
    <path id="Контур_15" data-name="Контур 15" d="M581.6,163.569c.262-.256.579-4.032.766-5.733.018-.16-.031-.234-.124-.235h-.006c-.411.007-1.643,1.392-1.807,3.1-.188,1.962.616,3.407,1.17,2.866" transform="translate(-32.512 0)" fill="#f6a72e"/>
    <path id="Контур_16" data-name="Контур 16" d="M576.223,165.1a48.914,48.914,0,0,0-2.375-5.88c-.474-.94-1.695,1.553-.767,4.141.712,1.985,3.312,2.62,3.141,1.739" transform="translate(-28.038 -0.829)" fill="#f6a72e"/>
    <path id="Контур_17" data-name="Контур 17" d="M572.176,181.778c0,.38-.147.688-.329.688s-.329-.308-.329-.688.147-.688.329-.688.329.308.329.688" transform="translate(-27.323 -13.718)" fill="#5e280b"/>
    <path id="Контур_18" data-name="Контур 18" d="M619.042,211.8a8.166,8.166,0,0,1-1.838,1.888c-.36-2.059-.818-4.019-1.287-4.275-2.361-1.284-8.573,1.91-9.863,3.026-.655.566.123,2.924.9,3.342.893.477,4.441-1.322,4.7-1.292.2.022-.046.841-.463,1.917a35.8,35.8,0,0,1-6.959,1.124,32.923,32.923,0,0,0,6.743-.582c-.85,2.095-2.119,4.767-2.119,4.767l9.062-2.958s-.2-1.814-.519-3.846c.48-.231.955-.48,1.419-.752.926-.545,3.347,14.165,2.685,15.029l-.006,0a4.8,4.8,0,0,0,.7-.322c1.1-4.347-.721-20.667-3.162-17.069" transform="translate(-46.433 -30.087)" fill="#e37429"/>
    <path id="Контур_19" data-name="Контур 19" d="M604.239,224.6s8.258.352,14.586-3.371c.926-.544,3.347,14.165,2.685,15.03,0,0-10.438,4.3-17.271-11.659" transform="translate(-46.433 -37.154)" fill="#f6a72e"/>
    <path id="Контур_20" data-name="Контур 20" d="M611.388,215.232c-.38.482-2.276-.034-2.276-.034a7.509,7.509,0,0,1,1.745-1.084c.291-.124.727.869.531,1.119" transform="translate(-49.279 -32.999)" fill="#5e280b"/>
    <path id="Контур_21" data-name="Контур 21" d="M629.67,201.325a24.9,24.9,0,0,0,.472-3.534c.058-.53-1.069.466-1.193,1.767-.116,1.209.379,2.1.721,1.767" transform="translate(-60.854 -23.387)" fill="#5e280b"/>
    <path id="Контур_22" data-name="Контур 22" d="M626.355,202.269a30.232,30.232,0,0,0-1.464-3.624c-.292-.579-1.044.958-.472,2.552.438,1.223,2.042,1.615,1.936,1.072" transform="translate(-58.096 -23.898)" fill="#5e280b"/>
    <path id="Контур_23" data-name="Контур 23" d="M622.739,212.963c0,.38-.147.688-.329.688s-.329-.307-.329-.688.148-.688.329-.688.329.308.329.688" transform="translate(-56.853 -31.931)" fill="#5e280b"/>
  </g>
</svg>
