<svg xmlns="http://www.w3.org/2000/svg" width="162.8" height="99.156" viewBox="0 0 162.8 99.156">
  <g id="Сгруппировать_30" data-name="Сгруппировать 30" transform="translate(-524.735 -157.601)">
    <path id="Контур_1" data-name="Контур 1" d="M536.235,224.386a4.034,4.034,0,0,1-.209,2.947,5.922,5.922,0,0,1-1.906,2.242,8.785,8.785,0,0,1,2.8,2.8,6.67,6.67,0,0,1,.977,3.8,5.088,5.088,0,0,1-.864,2.643,6.466,6.466,0,0,1-2.083,1.971,9.211,9.211,0,0,1-1.954.8,15.147,15.147,0,0,1-2.114.433q-1.091.143-2.211.208t-2.274.1l-1.666-21.846q1.634-.127,3.38-.16a14.7,14.7,0,0,1,3.331.3,7.75,7.75,0,0,1,2.851,1.217,5.52,5.52,0,0,1,1.938,2.546M533,233.932a3.2,3.2,0,0,0-1.65-1.346,6.41,6.41,0,0,0-2.13-.352l.129,6.727a4.479,4.479,0,0,0,2.1-.369A3.3,3.3,0,0,0,533,237.135q.16-.736.272-1.618A2.55,2.55,0,0,0,533,233.932Zm-1.41-10.25a4.658,4.658,0,0,1-.912-.416,1.415,1.415,0,0,0-1.042-.129l-.287,6.022a7.544,7.544,0,0,0,1.617-.3,1.965,1.965,0,0,0,1.2-1.106,5.951,5.951,0,0,0,.24-1.024,4.62,4.62,0,0,0,.032-1.09,3.632,3.632,0,0,0-.256-1.057A2.677,2.677,0,0,0,531.59,223.682Z" transform="translate(0 -10.282)" fill="#e37429"/>
    <path id="Контур_2" data-name="Контур 2" d="M547.808,242.949a1.518,1.518,0,0,1-.257-.864,1.1,1.1,0,0,0-.384-.834h-3.011a2.5,2.5,0,0,0-.416.865,6.73,6.73,0,0,1-.32.929,2.735,2.735,0,0,1-1.025-.192,7.6,7.6,0,0,0-.993-.32l4.485-17.425,4.292,17.425Zm-3.011-3.62,2.273-.127-1.089-3.075Z" transform="translate(-2.732 -11.068)" fill="#e37429"/>
    <path id="Контур_3" data-name="Контур 3" d="M561.666,228.758a3.253,3.253,0,0,1-.16,2.338,4.453,4.453,0,0,1-1.537,1.794,7.415,7.415,0,0,1,2.241,2.257,5.2,5.2,0,0,1,.769,3.027,3.938,3.938,0,0,1-.672,2.114,5.094,5.094,0,0,1-1.666,1.569,7.441,7.441,0,0,1-1.586.642,14.11,14.11,0,0,1-1.681.351q-.864.129-1.777.177c-.609.031-1.212.059-1.81.079l-1.313-17.488q1.28-.1,2.69-.13a11,11,0,0,1,2.674.257,6.593,6.593,0,0,1,2.274.977,4.353,4.353,0,0,1,1.553,2.034m-2.594,7.623a2.512,2.512,0,0,0-1.314-1.073,5.245,5.245,0,0,0-1.7-.272l.1,5.382a3.864,3.864,0,0,0,1.681-.3,2.519,2.519,0,0,0,1.233-1.169,8.391,8.391,0,0,0,.24-1.3A2,2,0,0,0,559.072,236.381Zm-1.121-8.2a7.605,7.605,0,0,1-.737-.352,1.2,1.2,0,0,0-.833-.1l-.223,4.837a6.888,6.888,0,0,0,1.281-.256,1.536,1.536,0,0,0,.961-.865,4.572,4.572,0,0,0,.208-1.7A2.379,2.379,0,0,0,557.951,228.181Z" transform="translate(-4.548 -11.13)" fill="#e37429"/>
    <path id="Контур_4" data-name="Контур 4" d="M572.956,235.684v6.823l-2.786.577-.1-8.1-3.267-7.047-1.153-2.306.128-.128,3.715.256,2.051,6.342.127.1.257-.223,1.954-6.214v-.128a7.783,7.783,0,0,1,1.81-.305q.944-.046,1.874-.175Z" transform="translate(-6.709 -11.074)" fill="#e37429"/>
    <path id="Контур_5" data-name="Контур 5" d="M536.64,251.549a2.5,2.5,0,0,1-1.041.288q-.562.031-1.154.016t-1.154.015a2.839,2.839,0,0,0-1.04.257l1.569,18.738-4.548-.416-.161-18.162a4.438,4.438,0,0,0-2.05-.1,13.351,13.351,0,0,1-2.05.224,6.214,6.214,0,0,1-.144-1.746q.048-.913.015-1.809l10.923-.417h.545Z" transform="translate(-0.02 -14.893)" fill="#fff"/>
    <path id="Контур_6" data-name="Контур 6" d="M549.594,258.6a4.765,4.765,0,0,1-.08,1.793,5.36,5.36,0,0,1-.673,1.569,6.292,6.292,0,0,1-1.121,1.33,10.139,10.139,0,0,1-1.425,1.074l2.466,7.046-1.858.257a33.688,33.688,0,0,1-1.939-3.027q-.88-1.554-1.842-3a22.06,22.06,0,0,0-.319,2.931q-.065,1.49-.257,2.964a7.106,7.106,0,0,1-1.441.128,8.107,8.107,0,0,1-1.506-.128l1.154-17.778q1.28.129,2.69.336a11.12,11.12,0,0,1,2.643.721,7.1,7.1,0,0,1,2.178,1.41,4.882,4.882,0,0,1,1.329,2.37m-3.2-.128-.256-.256a7.5,7.5,0,0,1-.593-.594,1.15,1.15,0,0,0-.721-.368,5.209,5.209,0,0,0-.5-.161.619.619,0,0,0-.5.1l-.481,5.894a7.421,7.421,0,0,0,1.409-.257,2.332,2.332,0,0,0,1.186-.833,3.173,3.173,0,0,0,.561-1.681A8.1,8.1,0,0,0,546.39,258.476Z" transform="translate(-2.437 -15.767)" fill="#fff"/>
    <path id="Контур_7" data-name="Контур 7" d="M558.88,271.57a1.518,1.518,0,0,1-.256-.864,1.1,1.1,0,0,0-.385-.834h-3.011a2.5,2.5,0,0,0-.416.865,6.787,6.787,0,0,1-.32.929,2.739,2.739,0,0,1-1.025-.192,7.43,7.43,0,0,0-.993-.32l4.484-17.425,4.292,17.425Zm-3.011-3.62,2.275-.128-1.089-3.074Z" transform="translate(-4.548 -15.76)" fill="#fff"/>
    <path id="Контур_8" data-name="Контур 8" d="M573.251,263.991l.224-2.049.1-8.135,3.267,1.024L575.3,271.647l-6.759-8.233q-.1-.159-.225-.128l-.1.128.8,8.329h-2.755l-2.723-17.937,9.609,10.185Z" transform="translate(-6.363 -15.773)" fill="#fff"/>
    <path id="Контур_9" data-name="Контур 9" d="M583.709,253.806q.416.576.656.912t.465.625a1.241,1.241,0,0,0,.256.288l-.1.032c-.106.064-.309.2-.609.4a9.016,9.016,0,0,0-.945.753,5,5,0,0,0-.865,1.026,2.273,2.273,0,0,0-.369,1.248,3.373,3.373,0,0,0,.528,1.57q.5.833,1.058,1.778a15.145,15.145,0,0,1,.992,2,5.458,5.458,0,0,1,.4,2.242,4.974,4.974,0,0,1-.576,2.13,8.227,8.227,0,0,1-1.089,1.586,10.92,10.92,0,0,1-1.506,1.345l-1.537-1.506a3.257,3.257,0,0,0,.977-.753,4.364,4.364,0,0,0,.673-1.185,5.245,5.245,0,0,0,.3-1.939,4.681,4.681,0,0,0-.416-2.049,16.376,16.376,0,0,0-.913-1.65,16.987,16.987,0,0,1-.9-1.6,3.758,3.758,0,0,1-.335-1.906,4.285,4.285,0,0,1,.672-2.033,10.541,10.541,0,0,1,1.314-1.715,15.21,15.21,0,0,1,1.858-1.6" transform="translate(-9.037 -15.773)" fill="#fff"/>
    <path id="Контур_10" data-name="Контур 10" d="M589.889,257.29a3.694,3.694,0,0,0-.08,1.634,16.235,16.235,0,0,1,.208,1.635,8.368,8.368,0,0,1,1.73-.146q.9.016,1.826.016l1.089,2.114-4.548.32-.224.257V271.9a3.943,3.943,0,0,1-1.186-.369q-.544-.271-1.153-.529l-.673-17.04,8.233.865-1.121,2.594a15.124,15.124,0,0,0-2.354-.112,13.406,13.406,0,0,1-1.745-.016" transform="translate(-10.188 -15.798)" fill="#fff"/>
    <path id="Контур_11" data-name="Контур 11" d="M605.415,256.169q-1.186.224-2.338.369a14.287,14.287,0,0,1-2.466.08l-.706.128.609,3.266,3.331.1q.256.642.577,1.281a6,6,0,0,1,.48,1.346,6.67,6.67,0,0,1-2.017-.048,7.624,7.624,0,0,0-2.05-.08q.062,1.409.016,2.979a21.265,21.265,0,0,0,.112,3.011,3.486,3.486,0,0,0,1.089.144q.544-.015,1.1-.063l1.121-.1a5.763,5.763,0,0,1,1.138.017l.224,2.53-1.666.224-5.862.353-.737-17.585,7.527-.352h.385Z" transform="translate(-11.91 -15.767)" fill="#fff"/>
    <path id="Контур_12" data-name="Контур 12" d="M618.019,258.6a4.755,4.755,0,0,1-.08,1.793,5.357,5.357,0,0,1-.672,1.569,6.348,6.348,0,0,1-1.121,1.33,10.2,10.2,0,0,1-1.425,1.074l2.466,7.046-1.858.257a33.825,33.825,0,0,1-1.939-3.027q-.88-1.554-1.841-3a22.061,22.061,0,0,0-.32,2.931q-.065,1.49-.257,2.964a7.1,7.1,0,0,1-1.441.128,8.1,8.1,0,0,1-1.5-.128l1.153-17.778q1.28.129,2.69.336a11.12,11.12,0,0,1,2.643.721,7.1,7.1,0,0,1,2.179,1.41,4.879,4.879,0,0,1,1.328,2.37m-3.2-.128-.257-.256a7.628,7.628,0,0,1-.593-.594,1.15,1.15,0,0,0-.72-.368q-.257-.1-.5-.161a.62.62,0,0,0-.5.1l-.481,5.894a7.415,7.415,0,0,0,1.41-.257,2.33,2.33,0,0,0,1.185-.833,3.163,3.163,0,0,0,.561-1.681A8.1,8.1,0,0,0,614.816,258.476Z" transform="translate(-13.656 -15.767)" fill="#fff"/>
    <path id="Контур_13" data-name="Контур 13" d="M644.965,217.133s.395,1.947-.438-4.513c-2.062-16-16.143-29.06-54.768-21.568-5.366,1.042-7.673-15.446-12.522-15.774-3.6-.244-21.562,8.208-25.388,10.666-1.753,1.126-1.524,6.768.471,8.325,2.644,2.064,9.538,0,14.639-2.058,2.756-1.112,9.667,3.9,10.18,6.827,1.217,6.933.5,17.969,10.6,27.45,0,0,.46,4.959,1.286,4.775.375-.083.787-.77,1.127-1.5.409-.876,1.31,1.855,2.361,2.04,1.819.322-1.112-3.657-.423-3.43,1.155.38,1.722,1.267,2.907.683,1.711-.842-2.49-3.2-2.49-3.2s2.321-.77,1.861-1.6-5.618-.313-5.618-.313-3.807-8.115-2.341-11.627c1.485-3.557,5.464,3.26,10.425,10.09s19.669,19.846,34.55,19.3a10.742,10.742,0,0,0,7.747,9.972s-20.756,3.468-18.19,5.739c4.348,3.847,18.013,2.127,23.108-.655,5.049-2.756-5.819-23.625-.222-23.625,1.035,0,11.831,24.623,42.628,21.259,2.277-.248,5.522-1.925,5.324-2.81-.318-1.43-2.514.222-8.721.354-24.307.518-37.912-34.481-38.092-34.811" transform="translate(-4.252 -2.897)" fill="#f6a72e"/>
    <path id="Контур_14" data-name="Контур 14" d="M557.716,187.148c-1.246,1.471-5.635.288-5.635.288s-.215-.352,5.662-3.044c.627-.287.339,2.323-.028,2.756" transform="translate(-4.483 -4.389)" fill="#5e280b"/>
    <path id="Контур_15" data-name="Контур 15" d="M582.812,169.6c.528-.514,1.165-8.1,1.54-11.522.035-.321-.063-.47-.248-.473h-.011c-.827.013-3.3,2.8-3.632,6.234-.377,3.944,1.237,6.847,2.352,5.761" transform="translate(-9.127 0)" fill="#f6a72e"/>
    <path id="Контур_16" data-name="Контур 16" d="M579.738,171.245c-.4-2.073-3.976-10.237-4.773-11.817-.953-1.889-3.406,3.121-1.541,8.322,1.431,3.99,6.657,5.266,6.314,3.5" transform="translate(-7.871 -0.233)" fill="#f6a72e"/>
    <path id="Контур_17" data-name="Контур 17" d="M572.84,182.472c0,.763-.3,1.383-.66,1.383s-.661-.619-.661-1.383.3-1.382.661-1.382.66.619.66,1.382" transform="translate(-7.67 -3.851)" fill="#5e280b"/>
    <path id="Контур_18" data-name="Контур 18" d="M633.991,214.517a16.41,16.41,0,0,1-3.693,3.794c-.723-4.139-1.644-8.078-2.588-8.592-4.745-2.581-17.23,3.838-19.823,6.081-1.316,1.138.248,5.877,1.818,6.717,1.794.959,8.926-2.656,9.452-2.6.406.045-.092,1.69-.931,3.853a71.957,71.957,0,0,1-13.986,2.26,66.172,66.172,0,0,0,13.553-1.169c-1.709,4.21-4.259,9.58-4.259,9.58l18.214-5.944s-.407-3.647-1.044-7.73c.965-.464,1.919-.964,2.851-1.512,1.861-1.1,6.728,28.469,5.4,30.207l-.012,0a9.64,9.64,0,0,0,1.406-.646c2.205-8.737-1.45-41.537-6.355-34.307" transform="translate(-13.035 -8.446)" fill="#e37429"/>
    <path id="Контур_19" data-name="Контур 19" d="M604.239,228.023s16.6.708,29.316-6.776c1.861-1.094,6.728,28.471,5.4,30.209,0,0-20.979,8.636-34.713-23.433" transform="translate(-13.035 -10.43)" fill="#f6a72e"/>
    <path id="Контур_20" data-name="Контур 20" d="M613.686,216.373c-.763.97-4.574-.069-4.574-.069a15.092,15.092,0,0,1,3.507-2.18c.585-.25,1.461,1.747,1.068,2.248" transform="translate(-13.834 -9.264)" fill="#5e280b"/>
    <path id="Контур_21" data-name="Контур 21" d="M630.415,205.04c.326-.318.718-4.995.95-7.1.117-1.065-2.149.936-2.4,3.551-.232,2.43.762,4.22,1.449,3.552" transform="translate(-17.083 -6.565)" fill="#5e280b"/>
    <path id="Контур_22" data-name="Контур 22" d="M628.521,206.054a60.778,60.778,0,0,0-2.943-7.284c-.587-1.164-2.1,1.925-.949,5.13.881,2.459,4.1,3.246,3.892,2.154" transform="translate(-16.309 -6.709)" fill="#5e280b"/>
    <path id="Контур_23" data-name="Контур 23" d="M623.4,213.658c0,.764-.3,1.382-.661,1.382s-.661-.618-.661-1.382.3-1.383.661-1.383.661.62.661,1.383" transform="translate(-15.96 -8.964)" fill="#5e280b"/>
  </g>
</svg>
