<svg xmlns="http://www.w3.org/2000/svg" width="14.2" height="11.157" viewBox="0 0 14.2 11.157">
  <g id="Сгруппировать_188" data-name="Сгруппировать 188" transform="translate(-503 -480.572)">
    <g id="_001-black-back-closed-envelope-shape" data-name="001-black-back-closed-envelope-shape" transform="translate(503 421.559)">
      <g id="Сгруппировать_182" data-name="Сгруппировать 182" transform="translate(0 59.013)">
        <path id="Контур_218" data-name="Контур 218" d="M29.441,327.863a1.213,1.213,0,0,0,.831-.313l-4.023-4.023-.278.2q-.452.333-.733.519a4.517,4.517,0,0,1-.749.38,2.282,2.282,0,0,1-.872.194H23.6a2.282,2.282,0,0,1-.872-.194,4.5,4.5,0,0,1-.749-.38q-.281-.186-.733-.519l-.278-.2-4.024,4.024a1.214,1.214,0,0,0,.831.313Z" transform="translate(-16.509 -316.706)" fill="#9593a3"/>
        <path id="Контур_219" data-name="Контур 219" d="M.8,199.244a4.2,4.2,0,0,1-.8-.689v6.121l3.546-3.546Q2.482,200.387.8,199.244Z" transform="translate(0 -194.957)" fill="#9593a3"/>
        <path id="Контур_220" data-name="Контур 220" d="M416.061,199.244q-1.619,1.1-2.752,1.887l3.544,3.545v-6.121A4.374,4.374,0,0,1,416.061,199.244Z" transform="translate(-402.654 -194.957)" fill="#9593a3"/>
        <path id="Контур_221" data-name="Контур 221" d="M12.938,59.013H1.274a1.132,1.132,0,0,0-.939.412,1.6,1.6,0,0,0-.329,1.03,1.852,1.852,0,0,0,.436,1.082,3.931,3.931,0,0,0,.927.915q.269.19,1.625,1.129l1.276.887.8.559.118.084.219.157q.258.186.428.3t.412.257a2.4,2.4,0,0,0,.456.214,1.261,1.261,0,0,0,.4.071h.016a1.261,1.261,0,0,0,.4-.071,2.4,2.4,0,0,0,.456-.214q.242-.143.412-.257t.428-.3l.218-.157.118-.084.8-.557,2.907-2.018a3.769,3.769,0,0,0,.967-.975,2.1,2.1,0,0,0,.388-1.2,1.278,1.278,0,0,0-1.268-1.268Z" transform="translate(-0.006 -59.013)" fill="#9593a3"/>
      </g>
    </g>
  </g>
</svg>
