<svg xmlns="http://www.w3.org/2000/svg" width="12.467" height="16.391" viewBox="0 0 12.467 16.391">
  <g id="man-user" transform="translate(-41.895)">
    <path id="Контур_191" data-name="Контур 191" d="M107.835,8.016c1.822,0,3.3-1.794,3.3-4.008S110.65,0,107.835,0s-3.3,1.794-3.3,4.008S106.012,8.016,107.835,8.016Z" transform="translate(-59.706)" fill="#9593a3"/>
    <path id="Контур_192" data-name="Контур 192" d="M41.9,300.441c0-.135,0-.038,0,0Z" transform="translate(0 -286.305)" fill="#9593a3"/>
    <path id="Контур_193" data-name="Контур 193" d="M308.085,301.609c0-.037,0-.256,0,0Z" transform="translate(-253.724 -287.367)" fill="#9593a3"/>
    <path id="Контур_194" data-name="Контур 194" d="M54.366,183.39c-.061-3.856-.565-4.955-4.419-5.65a2.707,2.707,0,0,1-3.614,0c-3.812.688-4.346,1.77-4.416,5.525-.006.307-.008.323-.009.287,0,.067,0,.19,0,.405,0,0,.918,1.85,6.232,1.85s6.232-1.85,6.232-1.85c0-.138,0-.234,0-.3A2.484,2.484,0,0,1,54.366,183.39Z" transform="translate(-0.012 -169.416)" fill="#9593a3"/>
  </g>
</svg>
