<svg xmlns="http://www.w3.org/2000/svg" width="17.067" height="22" viewBox="0 0 17.067 22">
  <g id="Сгруппировать_16" data-name="Сгруппировать 16" transform="translate(-51.493)">
    <g id="Сгруппировать_15" data-name="Сгруппировать 15" transform="translate(51.493)">
      <g id="Сгруппировать_14" data-name="Сгруппировать 14" transform="translate(0)">
        <path id="Контур_42" data-name="Контур 42" d="M175.207,404.514c0,.006,0,.011,0,.017a2.608,2.608,0,1,0,5.217,0c0-.006,0-.011,0-.017Z" transform="translate(-169.282 -385.14)" fill="#fff"/>
        <path id="Контур_43" data-name="Контур 43" d="M68.355,16.114l-2.348-3.449v-4.3A5.982,5.982,0,0,0,61.2,2.5V1.173a1.173,1.173,0,0,0-2.345,0V2.5a5.982,5.982,0,0,0-4.808,5.865v4.3L51.7,16.114a1.186,1.186,0,0,0,.98,1.853h14.7a1.186,1.186,0,0,0,.98-1.853Z" transform="translate(-51.493)" fill="#fff"/>
      </g>
    </g>
  </g>
</svg>
