<svg xmlns="http://www.w3.org/2000/svg" width="58.003" height="57.999" viewBox="0 0 58.003 57.999">
  <g id="Page-1" transform="translate(0.003)">
    <g id="_003---Call" data-name="003---Call" transform="translate(-1)">
      <path id="Shape" d="M25.017,33.983c-5.536-5.536-6.786-11.072-7.068-13.29a1.988,1.988,0,0,1,.571-1.664L23,14.551a2,2,0,0,0,.282-2.475L16.149,1A2,2,0,0,0,13.558.271L2.107,5.664a1.989,1.989,0,0,0-1.1,1.987c.6,5.7,3.085,19.712,16.855,33.483s27.78,16.255,33.483,16.855a1.989,1.989,0,0,0,1.987-1.1l5.393-11.451A2,2,0,0,0,58,42.851L46.924,35.72a2,2,0,0,0-2.475.28l-4.478,4.48a1.988,1.988,0,0,1-1.664.571c-2.218-.282-7.754-1.532-13.29-7.068Z" fill="#9593a3"/>
      <path id="Shape-2" data-name="Shape" d="M47,31a2,2,0,0,1-2-2A15.017,15.017,0,0,0,30,14a2,2,0,0,1,0-4A19.021,19.021,0,0,1,49,29,2,2,0,0,1,47,31Z" fill="#9593a3"/>
      <path id="Shape-3" data-name="Shape" d="M57,31a2,2,0,0,1-2-2A25.028,25.028,0,0,0,30,4a2,2,0,0,1,0-4A29.032,29.032,0,0,1,59,29a2,2,0,0,1-2,2Z" fill="#9593a3"/>
    </g>
  </g>
</svg>
