<svg xmlns="http://www.w3.org/2000/svg" width="18.991" height="18.991" viewBox="0 0 18.991 18.991">
  <path id="_002-key" data-name="002-key" d="M99.04,4.6a4.6,4.6,0,1,0-5.613,4.488v7.556a1.013,1.013,0,1,0,2.026,0v-.325h1.364a.671.671,0,1,0,0-1.339H96.79a.236.236,0,0,1-.235-.235v-.375a.236.236,0,0,1,.235-.235h.027a.671.671,0,1,0,0-1.339H95.453V9.088A4.608,4.608,0,0,0,99.04,4.6ZM94.44,7.19A2.589,2.589,0,1,1,97.03,4.6,2.589,2.589,0,0,1,94.44,7.19Z" transform="translate(-63.526 70.032) rotate(-45)" fill="#9593a3"/>
</svg>
