<svg xmlns="http://www.w3.org/2000/svg" width="18.5" height="14.959" viewBox="0 0 18.5 14.959">
  <g id="Сгруппировать_22" data-name="Сгруппировать 22" transform="translate(0 -3.057)">
    <g id="Сгруппировать_22-2" data-name="Сгруппировать 22" transform="translate(0 3.057)">
      <path id="Контур_52" data-name="Контур 52" d="M11.821,14.328h-.45a.422.422,0,0,1-.423-.422.321.321,0,0,1,.1-.23,3.035,3.035,0,0,0,.641-.966.181.181,0,0,0,.107.041c.253,0,.55-.558.55-.939s-.035-.689-.288-.689a.39.39,0,0,0-.094.013c-.018-1.032-.279-2.32-1.855-2.32-1.644,0-1.836,1.285-1.855,2.316a.361.361,0,0,0-.068-.01c-.253,0-.288.309-.288.689s.3.939.55.939a.173.173,0,0,0,.087-.024,3.044,3.044,0,0,0,.634.951.319.319,0,0,1,.1.229.423.423,0,0,1-.423.423H8.39a1.743,1.743,0,0,0-1.743,1.743v.483a.55.55,0,0,0,.55.55h5.817a.55.55,0,0,0,.55-.55v-.483A1.743,1.743,0,0,0,11.821,14.328Z" transform="translate(-2.797 -5.481)" fill="#f6a72e"/>
      <path id="Контур_53" data-name="Контур 53" d="M21.046,10.077H16.168a3.586,3.586,0,0,1,.283,1.169.708.708,0,0,1,.246.293h4.348a.407.407,0,0,0,.408-.408v-.647A.408.408,0,0,0,21.046,10.077Z" transform="translate(-6.803 -6.011)" fill="#f6a72e"/>
      <path id="Контур_54" data-name="Контур 54" d="M20.9,14.678H16.651a1.412,1.412,0,0,1-.792,1.013c-.012.021-.025.04-.037.061v.388H20.9a.408.408,0,0,0,.408-.408v-.646A.406.406,0,0,0,20.9,14.678Z" transform="translate(-6.657 -7.947)" fill="#f6a72e"/>
      <path id="Контур_55" data-name="Контур 55" d="M22.18,19.279H18.863a2.227,2.227,0,0,1,.348,1.194v.268H22.18a.407.407,0,0,0,.408-.408v-.647A.407.407,0,0,0,22.18,19.279Z" transform="translate(-7.937 -9.883)" fill="#f6a72e"/>
      <path id="Контур_56" data-name="Контур 56" d="M16,3.057H2.505A2.5,2.5,0,0,0,0,5.562v9.949a2.5,2.5,0,0,0,2.505,2.505H16a2.5,2.5,0,0,0,2.5-2.505V5.562A2.5,2.5,0,0,0,16,3.057Zm1.322,12.454A1.324,1.324,0,0,1,16,16.833H2.505a1.324,1.324,0,0,1-1.322-1.322V5.562A1.324,1.324,0,0,1,2.505,4.24H16a1.324,1.324,0,0,1,1.322,1.322Z" transform="translate(0 -3.057)" fill="#f6a72e"/>
    </g>
  </g>
</svg>
