<svg id="Сгруппировать_24" data-name="Сгруппировать 24" xmlns="http://www.w3.org/2000/svg" width="17.733" height="17.733" viewBox="0 0 17.733 17.733">
  <path id="Контур_60" data-name="Контур 60" d="M9.559,4.78v3.8L12.081,11.1a.693.693,0,0,1-.98.98L8.377,9.356a.693.693,0,0,1-.2-.49V4.78a.693.693,0,0,1,1.385,0ZM11.591,0H6.142A6.121,6.121,0,0,0,2.114,1.506V.693a.693.693,0,0,0-1.385,0V3.417a.694.694,0,0,0,.693.693H4.146a.693.693,0,0,0,0-1.385H2.836A4.773,4.773,0,0,1,6.142,1.385h5.449a4.762,4.762,0,0,1,4.757,4.757v5.449a4.762,4.762,0,0,1-4.757,4.757H6.142a4.762,4.762,0,0,1-4.757-4.757V8.867A.693.693,0,1,0,0,8.867v2.725a6.149,6.149,0,0,0,6.142,6.142h5.449a6.149,6.149,0,0,0,6.142-6.142V6.142A6.149,6.149,0,0,0,11.591,0Z" fill="#fff"/>
</svg>
