<svg xmlns="http://www.w3.org/2000/svg" width="17.444" height="17.742" viewBox="0 0 17.444 17.742">
  <g id="up-and-down-opposite-double-arrows-side-by-side" transform="translate(25.703 -0.001) rotate(90)">
    <path id="Контур_224" data-name="Контур 224" d="M428.894,25.635a1.351,1.351,0,0,1-.823.387,1.388,1.388,0,0,1-.886-.225,1.306,1.306,0,0,1-.2-.162l0,0L423.3,21.942a1.352,1.352,0,0,1,1.911-1.911l1.385,1.385V9.941a1.351,1.351,0,1,1,2.7,0V21.416l1.421-1.421a1.352,1.352,0,1,1,1.911,1.911L428.9,25.635S428.9,25.635,428.894,25.635Z" transform="translate(-422.898 -0.325)" fill="#9593a3"/>
    <path id="Контур_225" data-name="Контур 225" d="M8.77,14.695a1.34,1.34,0,0,1-.955-.4L6.394,12.877V24.352a1.351,1.351,0,1,1-2.7,0V12.877L2.306,14.262A1.351,1.351,0,0,1,.4,12.351l.294-.294c.24-.24.477-.481.719-.719q.465-.462.926-.926c.3-.306.616-.6.917-.913s.587-.593.9-.874a1.306,1.306,0,0,1,1.184-.333,1.293,1.293,0,0,1,.331.124,3.959,3.959,0,0,1,.784.69c.3.294.589.593.885.89.351.353.706.7,1.059,1.056.3.3.594.6.892.9l.432.431.007.007a1.352,1.352,0,0,1-.955,2.308Z" transform="translate(7.622 0)" fill="#9593a3"/>
  </g>
</svg>
