<svg xmlns="http://www.w3.org/2000/svg" width="18.896" height="13.373" viewBox="0 0 18.896 13.373">
  <g id="_003-sports-car" data-name="003-sports-car" transform="translate(0 -5.707)">
    <g id="Сгруппировать_80" data-name="Сгруппировать 80" transform="translate(0 5.707)">
      <path id="Контур_181" data-name="Контур 181" d="M18.787,9.845a.486.486,0,0,0-.375-.179H16.573a6.269,6.269,0,0,0-1.717-2.812c-2.325-1.529-8.491-1.529-10.816,0A6.3,6.3,0,0,0,2.323,9.667H.484a.484.484,0,0,0-.474.582l.272,1.32a.484.484,0,0,0,.474.386H1.3a3.267,3.267,0,0,0-.784,2.135,3.2,3.2,0,0,0,1.011,2.4l.021.017v1.847a.726.726,0,0,0,.726.726h1.7a.726.726,0,0,0,.726-.726v-.742h9.5v.742a.726.726,0,0,0,.726.726h1.7a.727.727,0,0,0,.726-.726v-1.81a3.319,3.319,0,0,0,.212-4.591h.581a.482.482,0,0,0,.474-.386l.273-1.319A.488.488,0,0,0,18.787,9.845ZM4.837,8.066c1.853-1.22,7.368-1.22,9.22,0a5.983,5.983,0,0,1,1.247,2.36H3.591A5.983,5.983,0,0,1,4.837,8.066Zm-2.17,6.2A1.428,1.428,0,1,1,4.094,15.7,1.428,1.428,0,0,1,2.667,14.271ZM14.82,15.7a1.427,1.427,0,1,1,1.428-1.428A1.428,1.428,0,0,1,14.82,15.7Z" transform="translate(0 -5.707)" fill="#9593a3"/>
    </g>
  </g>
</svg>
