<svg xmlns="http://www.w3.org/2000/svg" width="12.621" height="17" viewBox="0 0 12.621 17">
  <g id="ukraine-hryvna" transform="translate(-60.564 0)">
    <path id="Контур_190" data-name="Контур 190" d="M72.3,9.529H66.932c.54-.4,1.1-.769,1.582-1.124.12-.088.236-.178.351-.269H72.3a.85.85,0,1,0,0-1.7H70.5a5.274,5.274,0,0,0,.61-1.179,3.751,3.751,0,0,0-.465-3.345C68.967-.527,65.524-.347,63.126.865c-1.009.51-.116,1.977.892,1.468a5.016,5.016,0,0,1,3.813-.461,2.4,2.4,0,0,1,1.707,1.973A3.278,3.278,0,0,1,68.22,6.436H61.447a.85.85,0,1,0,0,1.7h4.5a14.324,14.324,0,0,0-1.193.927,5.586,5.586,0,0,0-.467.467H61.447a.851.851,0,1,0,0,1.7h1.812a4.178,4.178,0,0,0,.9,4.557c1.787,1.774,4.853,1.339,6.927.366,1.024-.48.128-1.946-.892-1.468-1.606.753-4.55,1.157-5.313-.911a2.68,2.68,0,0,1,.3-2.544H72.3a.851.851,0,1,0,0-1.7Z" transform="translate(0)" fill="#9593a3"/>
  </g>
</svg>
